<svg xmlns="http://www.w3.org/2000/svg" width="48.418" height="37.889" viewBox="0 0 48.418 37.889">
  <g id="グループ_129" data-name="グループ 129" transform="translate(-34.669 -21.72)">
    <g id="グループ_130" data-name="グループ 130" transform="translate(34.875 22.083)">
      <g id="グループ_26" data-name="グループ 26" transform="matrix(1, 0.017, -0.017, 1, 0.436, -0.122)">
        <g id="グループ_5" data-name="グループ 5" transform="translate(0 6.8)">
          <path id="パス_3" data-name="パス 3" d="M0,0C12.632,0,11.443,13.995,22.911,11.117" transform="translate(24.662 5.539)" fill="none" stroke="#000" stroke-linecap="round" stroke-width="0.5"/>
          <path id="パス_4" data-name="パス 4" d="M0,11.5c12.632,0,11.44-13.99,22.91-11.11" transform="matrix(0.966, 0.259, -0.259, 0.966, 2.979, 0)" fill="none" stroke="#000" stroke-linecap="round" stroke-width="0.5"/>
        </g>
        <g id="グループ_9" data-name="グループ 9" transform="translate(0 5.441)">
          <path id="パス_3-2" data-name="パス 3" d="M0,0C12.632,0,11.443,13.995,22.911,11.117" transform="translate(24.661 5.535)" fill="none" stroke="#000" stroke-linecap="round" stroke-width="0.5"/>
          <path id="パス_4-2" data-name="パス 4" d="M0,11.5c12.632,0,11.44-13.99,22.91-11.11" transform="matrix(0.966, 0.259, -0.259, 0.966, 2.979, 0)" fill="none" stroke="#000" stroke-linecap="round" stroke-width="0.5"/>
        </g>
        <g id="グループ_16" data-name="グループ 16" transform="translate(0 4.079)">
          <path id="パス_3-3" data-name="パス 3" d="M0,0C12.632,0,11.443,13.995,22.911,11.117" transform="translate(24.661 5.536)" fill="none" stroke="#000" stroke-linecap="round" stroke-width="0.5"/>
          <path id="パス_4-3" data-name="パス 4" d="M0,11.5c12.632,0,11.44-13.99,22.909-11.11" transform="matrix(0.966, 0.259, -0.259, 0.966, 2.979, 0)" fill="none" stroke="#000" stroke-linecap="round" stroke-width="0.5"/>
        </g>
        <g id="グループ_23" data-name="グループ 23" transform="translate(0 1.358)">
          <path id="パス_3-4" data-name="パス 3" d="M0,0C12.632,0,11.443,13.995,22.911,11.117" transform="translate(24.661 5.537)" fill="none" stroke="#000" stroke-linecap="round" stroke-width="0.5"/>
          <path id="パス_4-4" data-name="パス 4" d="M0,11.5C12.634,11.5,11.441-2.488,22.911.393" transform="matrix(0.966, 0.259, -0.259, 0.966, 2.978, 0)" fill="none" stroke="#000" stroke-linecap="round" stroke-width="0.5"/>
        </g>
        <g id="グループ_6" data-name="グループ 6" transform="translate(0 5.441)">
          <path id="パス_3-5" data-name="パス 3" d="M0,0C12.632,0,11.443,13.995,22.911,11.117" transform="translate(24.661 5.535)" fill="none" stroke="#000" stroke-linecap="round" stroke-width="0.5"/>
          <path id="パス_4-5" data-name="パス 4" d="M0,11.5c12.632,0,11.44-13.99,22.91-11.11" transform="matrix(0.966, 0.259, -0.259, 0.966, 2.979, 0)" fill="none" stroke="#000" stroke-linecap="round" stroke-width="0.5"/>
        </g>
        <g id="グループ_13" data-name="グループ 13" transform="translate(0 4.079)">
          <path id="パス_3-6" data-name="パス 3" d="M0,0C12.632,0,11.443,13.995,22.911,11.117" transform="translate(24.661 5.536)" fill="none" stroke="#000" stroke-linecap="round" stroke-width="0.5"/>
          <path id="パス_4-6" data-name="パス 4" d="M0,11.5c12.632,0,11.44-13.99,22.909-11.11" transform="matrix(0.966, 0.259, -0.259, 0.966, 2.979, 0)" fill="none" stroke="#000" stroke-linecap="round" stroke-width="0.5"/>
        </g>
        <g id="グループ_20" data-name="グループ 20" transform="translate(0 1.358)">
          <path id="パス_3-7" data-name="パス 3" d="M0,0C12.632,0,11.443,13.995,22.911,11.117" transform="translate(24.661 5.537)" fill="none" stroke="#000" stroke-linecap="round" stroke-width="0.5"/>
          <path id="パス_4-7" data-name="パス 4" d="M0,11.5C12.634,11.5,11.441-2.488,22.911.393" transform="matrix(0.966, 0.259, -0.259, 0.966, 2.978, 0)" fill="none" stroke="#000" stroke-linecap="round" stroke-width="0.5"/>
        </g>
        <g id="グループ_10" data-name="グループ 10" transform="translate(0 4.079)">
          <path id="パス_3-8" data-name="パス 3" d="M0,0C12.632,0,11.443,13.995,22.911,11.117" transform="translate(24.661 5.536)" fill="none" stroke="#000" stroke-linecap="round" stroke-width="0.5"/>
          <path id="パス_4-8" data-name="パス 4" d="M0,11.5c12.632,0,11.44-13.99,22.909-11.11" transform="matrix(0.966, 0.259, -0.259, 0.966, 2.979, 0)" fill="none" stroke="#000" stroke-linecap="round" stroke-width="0.5"/>
        </g>
        <g id="グループ_17" data-name="グループ 17" transform="translate(0 2.717)">
          <path id="パス_3-9" data-name="パス 3" d="M0,0C12.632,0,11.443,13.995,22.911,11.117" transform="translate(24.661 5.537)" fill="none" stroke="#000" stroke-linecap="round" stroke-width="0.5"/>
          <path id="パス_4-9" data-name="パス 4" d="M0,11.5C12.633,11.5,11.441-2.488,22.911.392" transform="matrix(0.966, 0.259, -0.259, 0.966, 2.978, 0)" fill="none" stroke="#000" stroke-linecap="round" stroke-width="0.5"/>
        </g>
        <g id="グループ_25" data-name="グループ 25" transform="translate(0 8.15)">
          <path id="パス_3-10" data-name="パス 3" d="M0,0C12.632,0,11.443,13.995,22.911,11.117" transform="translate(24.662 5.55)" fill="none" stroke="#000" stroke-linecap="round" stroke-width="0.5"/>
          <path id="パス_4-10" data-name="パス 4" d="M0,11.5c12.632,0,11.439-13.992,22.909-11.111" transform="matrix(0.966, 0.259, -0.259, 0.966, 2.979, 0.008)" fill="none" stroke="#000" stroke-linecap="round" stroke-width="0.5"/>
        </g>
        <g id="グループ_24" data-name="グループ 24" transform="translate(0 0)">
          <path id="パス_3-11" data-name="パス 3" d="M0,0C12.632,0,11.443,13.995,22.911,11.117" transform="translate(24.661 5.546)" fill="none" stroke="#000" stroke-linecap="round" stroke-width="0.5"/>
          <path id="パス_4-11" data-name="パス 4" d="M0,11.509c12.633,0,11.438-14,22.909-11.113" transform="matrix(0.966, 0.259, -0.259, 0.966, 2.978, 0)" fill="none" stroke="#000" stroke-linecap="round" stroke-width="0.5"/>
        </g>
      </g>
    </g>
    <text id="KATO" transform="translate(40.566 48.608)" font-size="13" font-family="KhmerMN, Khmer MN"><tspan x="0" y="0">KATO</tspan></text>
  </g>
</svg>
