<svg xmlns="http://www.w3.org/2000/svg" width="118.458" height="86.943" viewBox="0 0 118.458 86.943">
  <g id="グループ_27" data-name="グループ 27" transform="translate(-41.778 0.158)">
    <g id="グループ_26" data-name="グループ 26" transform="matrix(1, 0.017, -0.017, 1, -22.725, -21.573)">
      <g id="グループ_5" data-name="グループ 5" transform="translate(66 37.011)">
        <path id="パス_3" data-name="パス 3" d="M165.5,40c30.852,0,27.941,34.184,55.954,27.149" transform="translate(-104.179 -26.476)" fill="none" stroke="#000" stroke-linecap="round" stroke-width="0.5"/>
        <path id="パス_4" data-name="パス 4" d="M0,28.1C30.852,28.1,27.942-6.081,55.954.954" transform="matrix(0.966, 0.259, -0.259, 0.966, 7.274, 0)" fill="none" stroke="#000" stroke-linecap="round" stroke-width="0.5"/>
      </g>
      <g id="グループ_9" data-name="グループ 9" transform="translate(66 33.694)">
        <path id="パス_3-2" data-name="パス 3" d="M165.5,40c30.852,0,27.941,34.184,55.954,27.149" transform="translate(-104.179 -26.476)" fill="none" stroke="#000" stroke-linecap="round" stroke-width="0.5"/>
        <path id="パス_4-2" data-name="パス 4" d="M0,28.1C30.852,28.1,27.942-6.081,55.954.954" transform="matrix(0.966, 0.259, -0.259, 0.966, 7.274, 0)" fill="none" stroke="#000" stroke-linecap="round" stroke-width="0.5"/>
      </g>
      <g id="グループ_16" data-name="グループ 16" transform="translate(66 30.376)">
        <path id="パス_3-3" data-name="パス 3" d="M165.5,40c30.852,0,27.941,34.184,55.954,27.149" transform="translate(-104.179 -26.476)" fill="none" stroke="#000" stroke-linecap="round" stroke-width="0.5"/>
        <path id="パス_4-3" data-name="パス 4" d="M0,28.1C30.852,28.1,27.942-6.081,55.954.954" transform="matrix(0.966, 0.259, -0.259, 0.966, 7.274, 0)" fill="none" stroke="#000" stroke-linecap="round" stroke-width="0.5"/>
      </g>
      <g id="グループ_23" data-name="グループ 23" transform="translate(66 23.741)">
        <path id="パス_3-4" data-name="パス 3" d="M165.5,40c30.852,0,27.941,34.184,55.954,27.149" transform="translate(-104.179 -26.476)" fill="none" stroke="#000" stroke-linecap="round" stroke-width="0.5"/>
        <path id="パス_4-4" data-name="パス 4" d="M0,28.1C30.852,28.1,27.942-6.081,55.954.954" transform="matrix(0.966, 0.259, -0.259, 0.966, 7.274, 0)" fill="none" stroke="#000" stroke-linecap="round" stroke-width="0.5"/>
      </g>
      <g id="グループ_6" data-name="グループ 6" transform="translate(66 33.694)">
        <path id="パス_3-5" data-name="パス 3" d="M165.5,40c30.852,0,27.941,34.184,55.954,27.149" transform="translate(-104.179 -26.476)" fill="none" stroke="#000" stroke-linecap="round" stroke-width="0.5"/>
        <path id="パス_4-5" data-name="パス 4" d="M0,28.1C30.852,28.1,27.942-6.081,55.954.954" transform="matrix(0.966, 0.259, -0.259, 0.966, 7.274, 0)" fill="none" stroke="#000" stroke-linecap="round" stroke-width="0.5"/>
      </g>
      <g id="グループ_13" data-name="グループ 13" transform="translate(66 30.376)">
        <path id="パス_3-6" data-name="パス 3" d="M165.5,40c30.852,0,27.941,34.184,55.954,27.149" transform="translate(-104.179 -26.476)" fill="none" stroke="#000" stroke-linecap="round" stroke-width="0.5"/>
        <path id="パス_4-6" data-name="パス 4" d="M0,28.1C30.852,28.1,27.942-6.081,55.954.954" transform="matrix(0.966, 0.259, -0.259, 0.966, 7.274, 0)" fill="none" stroke="#000" stroke-linecap="round" stroke-width="0.5"/>
      </g>
      <g id="グループ_20" data-name="グループ 20" transform="translate(66 23.741)">
        <path id="パス_3-7" data-name="パス 3" d="M165.5,40c30.852,0,27.941,34.184,55.954,27.149" transform="translate(-104.179 -26.476)" fill="none" stroke="#000" stroke-linecap="round" stroke-width="0.5"/>
        <path id="パス_4-7" data-name="パス 4" d="M0,28.1C30.852,28.1,27.942-6.081,55.954.954" transform="matrix(0.966, 0.259, -0.259, 0.966, 7.274, 0)" fill="none" stroke="#000" stroke-linecap="round" stroke-width="0.5"/>
      </g>
      <g id="グループ_10" data-name="グループ 10" transform="translate(66 30.376)">
        <path id="パス_3-8" data-name="パス 3" d="M165.5,40c30.852,0,27.941,34.184,55.954,27.149" transform="translate(-104.179 -26.476)" fill="none" stroke="#000" stroke-linecap="round" stroke-width="0.5"/>
        <path id="パス_4-8" data-name="パス 4" d="M0,28.1C30.852,28.1,27.942-6.081,55.954.954" transform="matrix(0.966, 0.259, -0.259, 0.966, 7.274, 0)" fill="none" stroke="#000" stroke-linecap="round" stroke-width="0.5"/>
      </g>
      <g id="グループ_17" data-name="グループ 17" transform="translate(66 27.059)">
        <path id="パス_3-9" data-name="パス 3" d="M165.5,40c30.852,0,27.941,34.184,55.954,27.149" transform="translate(-104.179 -26.476)" fill="none" stroke="#000" stroke-linecap="round" stroke-width="0.5"/>
        <path id="パス_4-9" data-name="パス 4" d="M0,28.1C30.852,28.1,27.942-6.081,55.954.954" transform="matrix(0.966, 0.259, -0.259, 0.966, 7.274, 0)" fill="none" stroke="#000" stroke-linecap="round" stroke-width="0.5"/>
      </g>
      <g id="グループ_25" data-name="グループ 25" transform="translate(66 40.329)">
        <path id="パス_3-10" data-name="パス 3" d="M165.5,40c30.852,0,27.941,34.184,55.954,27.149" transform="translate(-104.179 -26.476)" fill="none" stroke="#000" stroke-linecap="round" stroke-width="0.5"/>
        <path id="パス_4-10" data-name="パス 4" d="M0,28.1C30.852,28.1,27.942-6.081,55.954.954" transform="matrix(0.966, 0.259, -0.259, 0.966, 7.274, 0)" fill="none" stroke="#000" stroke-linecap="round" stroke-width="0.5"/>
      </g>
      <g id="グループ_24" data-name="グループ 24" transform="translate(66 20.424)">
        <path id="パス_3-11" data-name="パス 3" d="M165.5,40c30.852,0,27.941,34.184,55.954,27.149" transform="translate(-104.179 -26.476)" fill="none" stroke="#000" stroke-linecap="round" stroke-width="0.5"/>
        <path id="パス_4-11" data-name="パス 4" d="M0,28.1C30.852,28.1,27.942-6.081,55.954.954" transform="matrix(0.966, 0.259, -0.259, 0.966, 7.274, 0)" fill="none" stroke="#000" stroke-linecap="round" stroke-width="0.5"/>
      </g>
    </g>
    <text id="KATO" transform="translate(65 61.785)" font-size="30" font-family="KhmerMN, Khmer MN"><tspan x="0" y="0">KATO</tspan></text>
  </g>
</svg>
