<svg xmlns="http://www.w3.org/2000/svg" width="95.097" height="74.607" viewBox="0 0 95.097 74.607">
  <g id="グループ_129" data-name="グループ 129" transform="translate(-34.46 -21.47)">
    <g id="グループ_130" data-name="グループ 130" transform="translate(34.873 21.967)">
      <g id="グループ_26" data-name="グループ 26" transform="matrix(1, 0.017, -0.017, 1, 0.864, 0)">
        <g id="グループ_5" data-name="グループ 5" transform="translate(0.002 13.345)">
          <path id="パス_3" data-name="パス 3" d="M0,0C24.8,0,22.469,27.48,44.989,21.83" transform="translate(48.42 10.873)" fill="none" stroke="#000" stroke-linecap="round" stroke-width="1"/>
          <path id="パス_4" data-name="パス 4" d="M0,22.583c24.805,0,22.463-27.471,44.986-21.816" transform="matrix(0.966, 0.259, -0.259, 0.966, 5.845, 0)" fill="none" stroke="#000" stroke-linecap="round" stroke-width="1"/>
        </g>
        <g id="グループ_9" data-name="グループ 9" transform="translate(0.002 10.678)">
          <path id="パス_3-2" data-name="パス 3" d="M0,0C24.8,0,22.469,27.48,44.989,21.83" transform="translate(48.42 10.865)" fill="none" stroke="#000" stroke-linecap="round" stroke-width="1"/>
          <path id="パス_4-2" data-name="パス 4" d="M0,22.583c24.805,0,22.463-27.471,44.986-21.816" transform="matrix(0.966, 0.259, -0.259, 0.966, 5.845, 0)" fill="none" stroke="#000" stroke-linecap="round" stroke-width="1"/>
        </g>
        <g id="グループ_16" data-name="グループ 16" transform="translate(0.001 8.003)">
          <path id="パス_3-3" data-name="パス 3" d="M0,0C24.8,0,22.469,27.48,44.989,21.83" transform="translate(48.42 10.866)" fill="none" stroke="#000" stroke-linecap="round" stroke-width="1"/>
          <path id="パス_4-3" data-name="パス 4" d="M0,22.584c24.805,0,22.463-27.472,44.986-21.817" transform="matrix(0.966, 0.259, -0.259, 0.966, 5.845, 0)" fill="none" stroke="#000" stroke-linecap="round" stroke-width="1"/>
        </g>
        <g id="グループ_23" data-name="グループ 23" transform="translate(0 2.662)">
          <path id="パス_3-4" data-name="パス 3" d="M0,0C24.8,0,22.469,27.48,44.989,21.83" transform="translate(48.42 10.868)" fill="none" stroke="#000" stroke-linecap="round" stroke-width="1"/>
          <path id="パス_4-4" data-name="パス 4" d="M0,22.584c24.805,0,22.463-27.473,44.985-21.817" transform="matrix(0.966, 0.259, -0.259, 0.966, 5.845, 0)" fill="none" stroke="#000" stroke-linecap="round" stroke-width="1"/>
        </g>
        <g id="グループ_6" data-name="グループ 6" transform="translate(0.002 10.678)">
          <path id="パス_3-5" data-name="パス 3" d="M0,0C24.8,0,22.469,27.48,44.989,21.83" transform="translate(48.42 10.865)" fill="none" stroke="#000" stroke-linecap="round" stroke-width="1"/>
          <path id="パス_4-5" data-name="パス 4" d="M0,22.583c24.805,0,22.463-27.471,44.986-21.816" transform="matrix(0.966, 0.259, -0.259, 0.966, 5.845, 0)" fill="none" stroke="#000" stroke-linecap="round" stroke-width="1"/>
        </g>
        <g id="グループ_13" data-name="グループ 13" transform="translate(0.001 8.003)">
          <path id="パス_3-6" data-name="パス 3" d="M0,0C24.8,0,22.469,27.48,44.989,21.83" transform="translate(48.42 10.866)" fill="none" stroke="#000" stroke-linecap="round" stroke-width="1"/>
          <path id="パス_4-6" data-name="パス 4" d="M0,22.584c24.805,0,22.463-27.472,44.986-21.817" transform="matrix(0.966, 0.259, -0.259, 0.966, 5.845, 0)" fill="none" stroke="#000" stroke-linecap="round" stroke-width="1"/>
        </g>
        <g id="グループ_20" data-name="グループ 20" transform="translate(0 2.662)">
          <path id="パス_3-7" data-name="パス 3" d="M0,0C24.8,0,22.469,27.48,44.989,21.83" transform="translate(48.42 10.868)" fill="none" stroke="#000" stroke-linecap="round" stroke-width="1"/>
          <path id="パス_4-7" data-name="パス 4" d="M0,22.584c24.805,0,22.463-27.473,44.985-21.817" transform="matrix(0.966, 0.259, -0.259, 0.966, 5.845, 0)" fill="none" stroke="#000" stroke-linecap="round" stroke-width="1"/>
        </g>
        <g id="グループ_10" data-name="グループ 10" transform="translate(0.001 8.003)">
          <path id="パス_3-8" data-name="パス 3" d="M0,0C24.8,0,22.469,27.48,44.989,21.83" transform="translate(48.42 10.866)" fill="none" stroke="#000" stroke-linecap="round" stroke-width="1"/>
          <path id="パス_4-8" data-name="パス 4" d="M0,22.584c24.805,0,22.463-27.472,44.986-21.817" transform="matrix(0.966, 0.259, -0.259, 0.966, 5.845, 0)" fill="none" stroke="#000" stroke-linecap="round" stroke-width="1"/>
        </g>
        <g id="グループ_17" data-name="グループ 17" transform="translate(0.001 5.329)">
          <path id="パス_3-9" data-name="パス 3" d="M0,0C24.8,0,22.469,27.48,44.989,21.83" transform="translate(48.42 10.867)" fill="none" stroke="#000" stroke-linecap="round" stroke-width="1"/>
          <path id="パス_4-9" data-name="パス 4" d="M0,22.584c24.805,0,22.463-27.473,44.985-21.817" transform="matrix(0.966, 0.259, -0.259, 0.966, 5.845, 0)" fill="none" stroke="#000" stroke-linecap="round" stroke-width="1"/>
        </g>
        <g id="グループ_25" data-name="グループ 25" transform="translate(0.003 16.015)">
          <path id="パス_3-10" data-name="パス 3" d="M0,0C24.8,0,22.469,27.48,44.989,21.83" transform="translate(48.42 10.876)" fill="none" stroke="#000" stroke-linecap="round" stroke-width="1"/>
          <path id="パス_4-10" data-name="パス 4" d="M0,22.585c24.805,0,22.462-27.474,44.985-21.818" transform="matrix(0.966, 0.259, -0.259, 0.966, 5.845, 0)" fill="none" stroke="#000" stroke-linecap="round" stroke-width="1"/>
        </g>
        <g id="グループ_24" data-name="グループ 24" transform="translate(0 0)">
          <path id="パス_3-11" data-name="パス 3" d="M0,0C24.8,0,22.469,27.48,44.989,21.83" transform="translate(48.42 10.879)" fill="none" stroke="#000" stroke-linecap="round" stroke-width="1"/>
          <path id="パス_4-11" data-name="パス 4" d="M0,22.59C24.806,22.6,22.46-4.893,44.984.768" transform="matrix(0.966, 0.259, -0.259, 0.966, 5.847, 0)" fill="none" stroke="#000" stroke-linecap="round" stroke-width="1"/>
        </g>
      </g>
    </g>
    <text id="KATO" transform="translate(49.052 75.076)" font-size="25" font-family="KhmerMN, Khmer MN"><tspan x="0" y="0">KATO</tspan></text>
  </g>
</svg>
